<mxfile host="app.diagrams.net" modified="2021-09-22T08:18:15.540Z" agent="5.0 (Windows NT 10.0; Win64; x64) AppleWebKit/537.36 (KHTML, like Gecko) Chrome/93.0.4577.18 Safari/537.36 Edg/93.0.961.11" etag="ruynrrLiJzCp4GvZayNt" version="13.8.1" type="github">
  <diagram id="dAOiKMT2uOEsUPaA3GJ8" name="Page-1">
    <mxGraphModel dx="976" dy="654" grid="1" gridSize="10" guides="1" tooltips="1" connect="1" arrows="1" fold="1" page="1" pageScale="1" pageWidth="827" pageHeight="1169" math="0" shadow="0">
      <root>
        <mxCell id="0" />
        <mxCell id="1" parent="0" />
        <mxCell id="c5a_cIjiCOIViKWlWVHM-27" value="" style="rounded=0;whiteSpace=wrap;html=1;" parent="1" vertex="1">
          <mxGeometry x="60" y="41" width="140" height="210" as="geometry" />
        </mxCell>
        <mxCell id="c5a_cIjiCOIViKWlWVHM-1" value="SQL Server" style="rounded=0;whiteSpace=wrap;html=1;" parent="1" vertex="1">
          <mxGeometry x="70" y="60" width="120" height="20" as="geometry" />
        </mxCell>
        <mxCell id="c5a_cIjiCOIViKWlWVHM-2" value="Oracle/SAP Hana" style="rounded=0;whiteSpace=wrap;html=1;" parent="1" vertex="1">
          <mxGeometry x="70" y="110" width="120" height="20" as="geometry" />
        </mxCell>
        <mxCell id="c5a_cIjiCOIViKWlWVHM-3" value="MySQL" style="rounded=0;whiteSpace=wrap;html=1;" parent="1" vertex="1">
          <mxGeometry x="70" y="160" width="120" height="20" as="geometry" />
        </mxCell>
        <mxCell id="c5a_cIjiCOIViKWlWVHM-4" value="其它数据源" style="rounded=0;whiteSpace=wrap;html=1;" parent="1" vertex="1">
          <mxGeometry x="70" y="210" width="120" height="20" as="geometry" />
        </mxCell>
        <mxCell id="c5a_cIjiCOIViKWlWVHM-29" value="" style="shape=flexArrow;endArrow=classic;html=1;" parent="1" edge="1">
          <mxGeometry width="50" height="50" relative="1" as="geometry">
            <mxPoint x="200" y="145.5" as="sourcePoint" />
            <mxPoint x="240" y="146" as="targetPoint" />
          </mxGeometry>
        </mxCell>
        <mxCell id="c5a_cIjiCOIViKWlWVHM-31" value="可视化ETL工具-&lt;br&gt;Kettle&amp;nbsp;" style="rounded=0;whiteSpace=wrap;html=1;" parent="1" vertex="1">
          <mxGeometry x="240" y="110" width="110" height="37" as="geometry" />
        </mxCell>
        <mxCell id="c5a_cIjiCOIViKWlWVHM-32" value="Pentaho Server" style="rounded=0;whiteSpace=wrap;html=1;" parent="1" vertex="1">
          <mxGeometry x="240" y="147" width="110" height="33" as="geometry" />
        </mxCell>
        <mxCell id="c5a_cIjiCOIViKWlWVHM-34" value="" style="shape=flexArrow;endArrow=classic;html=1;" parent="1" edge="1">
          <mxGeometry width="50" height="50" relative="1" as="geometry">
            <mxPoint x="350" y="147" as="sourcePoint" />
            <mxPoint x="390" y="147.5" as="targetPoint" />
          </mxGeometry>
        </mxCell>
        <mxCell id="c5a_cIjiCOIViKWlWVHM-35" value="PostgreSQL" style="rounded=0;whiteSpace=wrap;html=1;" parent="1" vertex="1">
          <mxGeometry x="390" y="110" width="120" height="37" as="geometry" />
        </mxCell>
        <mxCell id="c5a_cIjiCOIViKWlWVHM-36" value="Clickhouse （暂未使用）" style="rounded=0;whiteSpace=wrap;html=1;dashed=1;" parent="1" vertex="1">
          <mxGeometry x="390" y="147" width="120" height="33" as="geometry" />
        </mxCell>
        <mxCell id="c5a_cIjiCOIViKWlWVHM-38" value="EDP中台" style="rounded=0;whiteSpace=wrap;html=1;labelPosition=center;verticalLabelPosition=top;align=center;verticalAlign=bottom;" parent="1" vertex="1">
          <mxGeometry x="550" y="89.5" width="60" height="113" as="geometry" />
        </mxCell>
        <mxCell id="c5a_cIjiCOIViKWlWVHM-39" value="" style="shape=flexArrow;endArrow=classic;html=1;" parent="1" edge="1">
          <mxGeometry width="50" height="50" relative="1" as="geometry">
            <mxPoint x="510" y="145.5" as="sourcePoint" />
            <mxPoint x="550" y="146" as="targetPoint" />
          </mxGeometry>
        </mxCell>
        <mxCell id="c5a_cIjiCOIViKWlWVHM-43" value="Schema共享数据，如发货单应用等" style="rounded=0;whiteSpace=wrap;html=1;" parent="1" vertex="1">
          <mxGeometry x="630" y="11" width="110" height="49" as="geometry" />
        </mxCell>
        <mxCell id="c5a_cIjiCOIViKWlWVHM-44" value="" style="endArrow=classic;html=1;entryX=0;entryY=0.5;entryDx=0;entryDy=0;exitX=1;exitY=0.5;exitDx=0;exitDy=0;" parent="1" source="c5a_cIjiCOIViKWlWVHM-38" target="c5a_cIjiCOIViKWlWVHM-43" edge="1">
          <mxGeometry width="50" height="50" relative="1" as="geometry">
            <mxPoint x="610" y="180" as="sourcePoint" />
            <mxPoint x="660" y="130" as="targetPoint" />
          </mxGeometry>
        </mxCell>
        <mxCell id="c5a_cIjiCOIViKWlWVHM-45" value="PowerBI" style="rounded=0;whiteSpace=wrap;html=1;" parent="1" vertex="1">
          <mxGeometry x="632" y="147" width="110" height="20" as="geometry" />
        </mxCell>
        <mxCell id="c5a_cIjiCOIViKWlWVHM-46" value="" style="endArrow=classic;html=1;entryX=0;entryY=0.5;entryDx=0;entryDy=0;" parent="1" target="c5a_cIjiCOIViKWlWVHM-45" edge="1">
          <mxGeometry width="50" height="50" relative="1" as="geometry">
            <mxPoint x="610" y="140" as="sourcePoint" />
            <mxPoint x="620" y="210" as="targetPoint" />
          </mxGeometry>
        </mxCell>
        <mxCell id="c5a_cIjiCOIViKWlWVHM-47" value="开源Superset BI" style="rounded=0;whiteSpace=wrap;html=1;" parent="1" vertex="1">
          <mxGeometry x="632" y="182.5" width="110" height="20" as="geometry" />
        </mxCell>
        <mxCell id="c5a_cIjiCOIViKWlWVHM-48" value="" style="endArrow=classic;html=1;entryX=0;entryY=0.5;entryDx=0;entryDy=0;" parent="1" target="c5a_cIjiCOIViKWlWVHM-47" edge="1">
          <mxGeometry width="50" height="50" relative="1" as="geometry">
            <mxPoint x="610" y="140" as="sourcePoint" />
            <mxPoint x="680.7106781186548" y="146" as="targetPoint" />
          </mxGeometry>
        </mxCell>
        <mxCell id="c5a_cIjiCOIViKWlWVHM-49" value="Rest API" style="rounded=0;whiteSpace=wrap;html=1;" parent="1" vertex="1">
          <mxGeometry x="630" y="87" width="110" height="23" as="geometry" />
        </mxCell>
        <mxCell id="c5a_cIjiCOIViKWlWVHM-50" value="" style="endArrow=classic;html=1;entryX=0;entryY=0.5;entryDx=0;entryDy=0;exitX=1;exitY=0.5;exitDx=0;exitDy=0;" parent="1" source="c5a_cIjiCOIViKWlWVHM-38" target="c5a_cIjiCOIViKWlWVHM-49" edge="1">
          <mxGeometry width="50" height="50" relative="1" as="geometry">
            <mxPoint x="390" y="290" as="sourcePoint" />
            <mxPoint x="440" y="240" as="targetPoint" />
          </mxGeometry>
        </mxCell>
        <mxCell id="c5a_cIjiCOIViKWlWVHM-56" value="&lt;h1&gt;&lt;span style=&quot;color: rgb(51 , 51 , 51) ; font-size: 12px ; font-weight: 400 ; text-align: right&quot;&gt;当前数据同步方案说明：&lt;/span&gt;&lt;/h1&gt;&lt;p&gt;1、ETL执行过程和持续时间要有监控、数据同步的效率需要优化、数据同步实时性可能不够。&lt;/p&gt;&lt;p&gt;2、Postgresql数据库支持列式存储、有单点的风险，监控现在有，但不完善。&lt;/p&gt;&lt;p&gt;4、当前数据量比较小，所以未启用Clickhouse&lt;/p&gt;&lt;p&gt;5、注意升级kettle, Pentaho server 版本。&lt;/p&gt;" style="text;html=1;strokeColor=none;fillColor=none;spacing=5;spacingTop=-20;whiteSpace=wrap;overflow=hidden;rounded=0;dashed=1;dashPattern=1 4;" parent="1" vertex="1">
          <mxGeometry x="60" y="280" width="560" height="200" as="geometry" />
        </mxCell>
      </root>
    </mxGraphModel>
  </diagram>
</mxfile>
